<svg xmlns="http://www.w3.org/2000/svg" width="392.304" height="108.724" viewBox="0 0 392.304 108.724">
  <g id="グループ_843" data-name="グループ 843" transform="translate(-1099.858 -1463.848)">
    <path id="パス_1536" data-name="パス 1536" d="M1099.858,1572.572v-16.1l24.5-4.321.6-13.956-22.151,3.906v-15.7l42.052-7.415-1.1,29.745,4.4-.775V1564.1Z"/>
    <path id="パス_1537" data-name="パス 1537" d="M1149.858,1563.2v-17.751l48.3-8.517v17.8Zm2.4-28.174v-16.8l43.5-7.671v16.8Z"/>
    <path id="パス_1538" data-name="パス 1538" d="M1199.858,1541.038v-17.85l48.3-8.518v17.851Z"/>
    <path id="パス_1539" data-name="パス 1539" d="M1297.662,1508.842c0,26.5-13.951,32.362-45.4,37.908l-1.55-18.128c22.752-4.012,26.9-6.794,27.9-15.221l-6.251,1.1a35.669,35.669,0,0,1-2.85,7.153l-20.251,2.121c3.2-5.914,6.95-18.777,7.1-25l19.1-3.368a32.99,32.99,0,0,1-.25,3.944l22.451-3.959Z"/>
    <path id="パス_1540" data-name="パス 1540" d="M1344.861,1529.721c-4.2,1.29-11.2,2.675-20.351,4.289-19.3,3.4-25.352-.03-25.352-8.43v-34.353l19.352-3.412v5.9a195.991,195.991,0,0,0,22.652-8.344l3.55,16.075a195.022,195.022,0,0,1-26.2,9.62v3.351c0,2.1,2.35,2.535,7.65,1.6a134.309,134.309,0,0,0,18.7-4.348Z"/>
    <path id="パス_1541" data-name="パス 1541" d="M1373.711,1524.234v-2.15l-8.4,1.482v2.149L1346.659,1529v-45.053l45.7-8.059V1521Zm0-28.9-8.4,1.482v10l8.4-1.482Z"/>
    <path id="パス_1542" data-name="パス 1542" d="M1411.91,1517.6v-18.352c-4.65,1.77-8.451,3.091-12.8,4.408l-5.35-17.458c13.85-4.092,30.752-12.123,40.3-19.207l9.2,15.579a82.415,82.415,0,0,1-11.4,7.46v24.052Z"/>
    <path id="パス_1543" data-name="パス 1543" d="M1492.162,1492.848c-6.8,10.149-18.451,14.854-47.2,19.923l-1.05-19.616c3-.429,5.8-.872,8.45-1.34,19.2-3.385,28.6-8.144,37.3-17.728Zm-23.6-8.99a113.657,113.657,0,0,0-22.651-4.206l6.25-15.8a105.266,105.266,0,0,1,23.051,3.437Z"/>
  </g>
</svg>
