<svg xmlns="http://www.w3.org/2000/svg" width="198.398" height="76.482" viewBox="0 0 198.398 76.482">
  <g id="グループ_841" data-name="グループ 841" transform="translate(-1347.107 -1132.074)">
    <path id="パス_1531" data-name="パス 1531" d="M1347.107,1208.211c3.151-12.83,4.151-31.134,4.2-41.942l19.4-2.469c-.05,10.856-.95,31.473-3.7,44.756Zm29.953-1.428c-2.851-12.39-3.6-32.621-3.651-43.46l19.4-4.372c.049,10.791,1.1,28.637,4.15,40.47Z"/>
    <path id="パス_1532" data-name="パス 1532" d="M1397.728,1199.285c2.85-12.4,3.95-30.765,3.95-41.9l18.851-2.372c-.05,10.856-.65,31.9-3.45,44.712Zm24.652-45.5,19.451-3.429v19.792a35.653,35.653,0,0,0,5.5-2.778v20.744c-5.851,3.695-16.651,8.169-24.951,10.584Z"/>
    <path id="パス_1533" data-name="パス 1533" d="M1496.6,1159.729c0,22.266-7,27.164-44.252,33.732l-1.551-16.378c26.5-4.673,27.252-5.662,27.252-14.987l-10.45,1.843v8.135l-18.2,3.21v-22.552l14.55-2.565v-3.712l19.4-3.421v3.712l13.25-2.337Z"/>
    <path id="パス_1534" data-name="パス 1534" d="M1499.753,1167.165c22.6-3.985,25.4-5.193,25.4-9.474v-22.029l20.351-3.588v25.739c0,17.937-12.5,21.473-44.2,27.063Zm.05-2.72v-24.312l20.3-3.58v24.312Z"/>
  </g>
</svg>
