<svg xmlns="http://www.w3.org/2000/svg" width="192.002" height="75.691" viewBox="0 0 192.002 75.691">
  <g id="グループ_837" data-name="グループ 837" transform="translate(-1349.158 -957.638)">
    <path id="パス_1527" data-name="パス 1527" d="M1394.86,1027.729c-4.2,1.264-11.2,2.641-20.35,4.254-19.3,3.4-25.352.189-25.352-7.8V991.493l19.351-3.412V993.7a204.125,204.125,0,0,0,22.651-8.133l3.551,15.265a203.384,203.384,0,0,1-26.2,9.377v3.188c0,2,2.35,2.393,7.65,1.458a140.808,140.808,0,0,0,18.7-4.3Z" fill="#e546ba"/>
    <path id="パス_1528" data-name="パス 1528" d="M1400.777,1026.353V982.439l19.852-3.5v8.088a161.52,161.52,0,0,1,23.1,4.585l-3.55,19.609a121.525,121.525,0,0,0-19.551-4.45v16.081Z" fill="#e546ba"/>
    <path id="パス_1529" data-name="パス 1529" d="M1468.844,1001.79c-3.3,6.957-7.4,12.343-14.151,16.435l-11.15-11.783c7.65-4.156,10.25-9.991,10.25-15.272l-7.8,1.375V978.13l8.6-1.517v-3.759l16.95-2.988v3.759l20.151-3.554v26.5c0,12.8-5.5,15.671-19.85,18.249Zm6.65-14.446-4,.705a35.534,35.534,0,0,1-2.4,13.031c5.2-.917,6.4-1.89,6.4-3.7Z" fill="#e546ba"/>
    <path id="パス_1530" data-name="パス 1530" d="M1495.408,992.729c22.6-3.985,25.4-5.193,25.4-9.474V961.226l20.35-3.588v25.739c0,17.937-12.5,21.473-44.2,27.063Zm.05-2.721V965.7l20.3-3.579v24.312Z" fill="#e546ba"/>
  </g>
</svg>
