<svg xmlns="http://www.w3.org/2000/svg" width="472.43" height="160" viewBox="0 0 472.43 160">
  <g id="グループ_860" data-name="グループ 860" transform="translate(-563 -148)">
    <g id="グループ_118" data-name="グループ 118" transform="translate(0.398 0.137)">
      <path id="パス_911" data-name="パス 911" d="M4490.031,254.726l460-106.863L4757.248,302.834Z" transform="translate(-3915 0)" fill="#fefc51"/>
      <path id="パス_912" data-name="パス 912" d="M11.784,0l271.55.858-4.754,5.3L0,5.127Z" transform="matrix(0.985, 0.174, -0.174, 0.985, 563.67, 252.601)" fill="#e3cf43"/>
    </g>
    <g id="グループ_830" data-name="グループ 830">
      <g id="グループ_829" data-name="グループ 829" transform="translate(-581.109 -1049.893)">
        <path id="パス_1520" data-name="パス 1520" d="M1349.461,1269.121c-.65,21.816-9.5,29.227-36.3,34l-2.05-16.939c16.2-2.907,19.452-5.48,19.852-13.8l-3,.529a31.634,31.634,0,0,1-2.649,6.817l-18.2,1.76c3.2-5.965,6.951-19.527,7.1-25.8l18.051-3.183a33.5,33.5,0,0,1-.25,3.994l13.2-2.327a47.046,47.046,0,0,1,2.2,5.312l8.751-4.343v12.8Zm-1.051-11.766a36.077,36.077,0,0,0-2.549-5.75l3.35-1.541a48.239,48.239,0,0,1,2.7,5.374Zm5.1-2.449a32.442,32.442,0,0,0-2.5-5.459l3.251-1.473a33.981,33.981,0,0,1,2.7,5.173Z"/>
        <path id="パス_1521" data-name="パス 1521" d="M1357.858,1280.241v-17.85l48.3-8.517v17.85Z"/>
        <path id="パス_1522" data-name="パス 1522" d="M1435.961,1281.421c0-.4-.051-.842-.051-1.642-8.6,2.017-17,3.6-27.7,5.485l-.85-16.6,1.9-.335a249.755,249.755,0,0,0,3.55-30.078l18.152-2.3a253.849,253.849,0,0,1-3,28.68c2.5-.49,4.45-.935,6.8-1.5-.8-9.209-1.7-18.351-2.55-24.052l18.351-5.186c2,10.549,4.35,32.185,5.2,43.086Z"/>
      </g>
      <path id="パス_1523" data-name="パス 1523" d="M-13.68-6.96h-5.895v3.24h1.74v.435a2.189,2.189,0,0,1-1.305.3c-1.11,0-1.845-.855-1.845-2.67,0-1.92.735-2.595,1.515-2.595a.8.8,0,0,1,.87.57h4.98c-.39-2.895-2.055-4.635-6.09-4.635-3.84,0-6.33,2.79-6.33,6.66,0,3.81,2.22,6.63,6.975,6.63C-16.77.975-14.5.2-13.68-.66ZM.24.6-3.345-11.91h-6.12L-13.05.6h5.025L-7.65-1.1h2.385L-4.89.6ZM-5.895-4.875H-6.96l.465-2.745h.15ZM14.64.6V-11.91H8.28L7.6-5.37l-.63-6.54H.825V.6h4.05V-1.125c0-.6-.135-4.08-.18-5.52.255,1.455.54,3.165.72,4.26L5.895.6h3.33l.5-2.91c.165-.975.465-2.895.7-4.335-.06,1.455-.15,3.93-.15,5.5V.6ZM25.92.6V-3.33H20.94v-.7h4.23V-7.35H20.94v-.645h4.77V-11.91H15.99V.6Z" transform="translate(849 258)"/>
    </g>
  </g>
</svg>
